<svg width="200" height="200" viewBox="0 0 1024 1024" xmlns="http://www.w3.org/2000/svg">

  <!-- Background color box with rounded corners -->
  <rect width="1024" height="1024" fill="rgb(37, 89, 189)" rx="140" ry="140"/>

  <!-- Icon -->
  <path fill="white" d="M298.667 597.333v-131.84c-30.72-14.08-59.307-31.146-85.334-51.2v183.04zM213.333 768H128v-85.333H42.667v-85.334H128V298.667h85.333v61.013C290.133 426.667 395.52 469.333 512 469.333s221.867-42.666 298.667-109.653v-61.013H896v298.666h85.333v85.334H896V768h-85.333v-85.333H213.333zm512-302.507v131.84h85.334v-183.04c-26.027 20.054-54.614 37.12-85.334 51.2m-42.666 131.84V482.987c-27.307 9.813-55.894 17.066-85.334 22.186v92.16zm-128 0v-87.04L512 512l-42.667-1.707v87.04zm-128 0v-92.16c-29.44-5.12-58.027-12.373-85.334-22.186v114.346z"/>
</svg>
